%TF.GenerationSoftware,KiCad,Pcbnew,7.0.9*%
%TF.CreationDate,2024-01-30T12:33:28+01:00*%
%TF.ProjectId,FINESSE,46494e45-5353-4452-9e6b-696361645f70,rev?*%
%TF.SameCoordinates,Original*%
%TF.FileFunction,Profile,NP*%
%FSLAX46Y46*%
G04 Gerber Fmt 4.6, Leading zero omitted, Abs format (unit mm)*
G04 Created by KiCad (PCBNEW 7.0.9) date 2024-01-30 12:33:28*
%MOMM*%
%LPD*%
G01*
G04 APERTURE LIST*
%TA.AperFunction,Profile*%
%ADD10C,0.050000*%
%TD*%
%TA.AperFunction,Profile*%
%ADD11C,0.120000*%
%TD*%
G04 APERTURE END LIST*
D10*
X51360000Y83000000D02*
G75*
G03*
X51360000Y83000000I-2060000J0D01*
G01*
X148125000Y118725000D02*
X148125000Y115775000D01*
D11*
X153874000Y112425000D02*
G75*
G03*
X153874000Y112425000I-1775000J0D01*
G01*
D10*
X140200000Y25000D02*
X193275000Y25000D01*
X190025000Y112425000D02*
G75*
G03*
X190025000Y112425000I-1775000J0D01*
G01*
D11*
X22140000Y82600000D02*
G75*
G03*
X22140000Y82600000I-1000000J0D01*
G01*
D10*
X196276000Y77997000D02*
X195025000Y77997000D01*
X15975000Y115775000D02*
X148125000Y115775000D01*
X128775000Y25000D02*
X128775000Y10025000D01*
D11*
X25000Y96874996D02*
G75*
G03*
X1875170Y98750900I-25001J1875004D01*
G01*
D10*
X148125000Y118725000D02*
X196275000Y118725000D01*
X128775000Y10025000D02*
X140200000Y10025000D01*
D11*
X190150200Y33775000D02*
G75*
G03*
X190150200Y33775000I-1600200J0D01*
G01*
D10*
X24975000Y10025000D02*
X35375000Y10025000D01*
X196277000Y49500000D02*
X195024000Y49500000D01*
X140200000Y25000D02*
X140200000Y10025000D01*
X196277000Y48500000D02*
X195024000Y48500000D01*
X14000000Y112425000D02*
G75*
G03*
X14000000Y112425000I-1775000J0D01*
G01*
X196275020Y77000620D02*
X196275000Y49500000D01*
X25000Y96875000D02*
X25000Y25000D01*
X182363000Y4901000D02*
G75*
G03*
X182363000Y4901000I-2060000J0D01*
G01*
X25000Y100624830D02*
X25000Y118725000D01*
X193275000Y44850000D02*
X196275000Y44850000D01*
X196275000Y77005000D02*
X195024000Y77006000D01*
X196275000Y78000000D02*
X196275000Y118725000D01*
X196277300Y48500520D02*
X196275000Y44850000D01*
D11*
X117363000Y82791000D02*
G75*
G03*
X117363000Y82791000I-1560000J0D01*
G01*
X184360000Y112750000D02*
G75*
G03*
X184360000Y112750000I-1060000J0D01*
G01*
D10*
X195020020Y49500986D02*
G75*
G03*
X194547000Y48997000I31980J-503986D01*
G01*
D11*
X18907000Y4939000D02*
G75*
G03*
X18907000Y4939000I-1810000J0D01*
G01*
D10*
X15975000Y118725000D02*
X25000Y118725000D01*
D11*
X1874996Y98750000D02*
G75*
G03*
X25000Y100624829I-1874998J-2D01*
G01*
X148967000Y4939000D02*
G75*
G03*
X148967000Y4939000I-1810000J0D01*
G01*
D10*
X35375000Y25000D02*
X35375000Y10025000D01*
X195021000Y77996995D02*
G75*
G03*
X194545461Y77506000I25000J-499995D01*
G01*
X194546685Y48999490D02*
G75*
G03*
X195024000Y48500001I500015J10D01*
G01*
X25000Y25000D02*
X24975000Y25000D01*
X35375000Y25000D02*
X128775000Y25000D01*
X15975000Y118725000D02*
X15975000Y115775000D01*
X193275000Y25000D02*
X193275000Y44850000D01*
X24975000Y25000D02*
X24975000Y10025000D01*
D11*
X6758000Y4901000D02*
G75*
G03*
X6758000Y4901000I-2060000J0D01*
G01*
D10*
X194545504Y77506000D02*
G75*
G03*
X195020480Y77006630I499996J0D01*
G01*
M02*
