%TF.GenerationSoftware,KiCad,Pcbnew,7.0.9*%
%TF.CreationDate,2024-01-30T12:33:28+01:00*%
%TF.ProjectId,FINESSE,46494e45-5353-4452-9e6b-696361645f70,rev?*%
%TF.SameCoordinates,Original*%
%TF.FileFunction,Paste,Bot*%
%TF.FilePolarity,Positive*%
%FSLAX46Y46*%
G04 Gerber Fmt 4.6, Leading zero omitted, Abs format (unit mm)*
G04 Created by KiCad (PCBNEW 7.0.9) date 2024-01-30 12:33:28*
%MOMM*%
%LPD*%
G01*
G04 APERTURE LIST*
G04 Aperture macros list*
%AMRoundRect*
0 Rectangle with rounded corners*
0 $1 Rounding radius*
0 $2 $3 $4 $5 $6 $7 $8 $9 X,Y pos of 4 corners*
0 Add a 4 corners polygon primitive as box body*
4,1,4,$2,$3,$4,$5,$6,$7,$8,$9,$2,$3,0*
0 Add four circle primitives for the rounded corners*
1,1,$1+$1,$2,$3*
1,1,$1+$1,$4,$5*
1,1,$1+$1,$6,$7*
1,1,$1+$1,$8,$9*
0 Add four rect primitives between the rounded corners*
20,1,$1+$1,$2,$3,$4,$5,0*
20,1,$1+$1,$4,$5,$6,$7,0*
20,1,$1+$1,$6,$7,$8,$9,0*
20,1,$1+$1,$8,$9,$2,$3,0*%
G04 Aperture macros list end*
%ADD10R,3.000000X9.000000*%
%ADD11R,2.000000X9.000000*%
%ADD12RoundRect,0.050000X0.450000X0.750000X-0.450000X0.750000X-0.450000X-0.750000X0.450000X-0.750000X0*%
%ADD13RoundRect,0.059500X1.590500X-0.535500X1.590500X0.535500X-1.590500X0.535500X-1.590500X-0.535500X0*%
G04 APERTURE END LIST*
D10*
%TO.C,P2*%
X37810000Y5460000D03*
D11*
X40810000Y5460000D03*
X43310000Y5460000D03*
X45810000Y5460000D03*
X48310000Y5460000D03*
X50810000Y5460000D03*
X53310000Y5460000D03*
X55810000Y5460000D03*
X58310000Y5460000D03*
X60810000Y5460000D03*
X63310000Y5460000D03*
X65810000Y5460000D03*
X68310000Y5460000D03*
X70810000Y5460000D03*
X73310000Y5460000D03*
X75810000Y5460000D03*
X78310000Y5460000D03*
X80810000Y5460000D03*
X83310000Y5460000D03*
X85810000Y5460000D03*
X88310000Y5460000D03*
X90810000Y5460000D03*
X93310000Y5460000D03*
X95810000Y5460000D03*
X98310000Y5460000D03*
X100810000Y5460000D03*
X103310000Y5460000D03*
X105810000Y5460000D03*
X108310000Y5460000D03*
X110810000Y5460000D03*
X113310000Y5460000D03*
X115810000Y5460000D03*
X118310000Y5460000D03*
X120810000Y5460000D03*
X123310000Y5460000D03*
D10*
X126310000Y5460000D03*
%TD*%
D12*
%TO.C,S1*%
X180960000Y40860000D03*
X175960000Y40860000D03*
X178460000Y40860000D03*
X180960000Y37560000D03*
X175960000Y37560000D03*
X178460000Y37560000D03*
%TD*%
D13*
%TO.C,P1*%
X176140000Y29570000D03*
X182540000Y32110000D03*
X176140000Y34650000D03*
%TD*%
M02*
