%TF.GenerationSoftware,KiCad,Pcbnew,7.0.9*%
%TF.CreationDate,2024-01-30T12:33:28+01:00*%
%TF.ProjectId,FINESSE,46494e45-5353-4452-9e6b-696361645f70,rev?*%
%TF.SameCoordinates,Original*%
%TF.FileFunction,Soldermask,Top*%
%TF.FilePolarity,Negative*%
%FSLAX46Y46*%
G04 Gerber Fmt 4.6, Leading zero omitted, Abs format (unit mm)*
G04 Created by KiCad (PCBNEW 7.0.9) date 2024-01-30 12:33:28*
%MOMM*%
%LPD*%
G01*
G04 APERTURE LIST*
G04 Aperture macros list*
%AMRoundRect*
0 Rectangle with rounded corners*
0 $1 Rounding radius*
0 $2 $3 $4 $5 $6 $7 $8 $9 X,Y pos of 4 corners*
0 Add a 4 corners polygon primitive as box body*
4,1,4,$2,$3,$4,$5,$6,$7,$8,$9,$2,$3,0*
0 Add four circle primitives for the rounded corners*
1,1,$1+$1,$2,$3*
1,1,$1+$1,$4,$5*
1,1,$1+$1,$6,$7*
1,1,$1+$1,$8,$9*
0 Add four rect primitives between the rounded corners*
20,1,$1+$1,$2,$3,$4,$5,0*
20,1,$1+$1,$4,$5,$6,$7,0*
20,1,$1+$1,$6,$7,$8,$9,0*
20,1,$1+$1,$8,$9,$2,$3,0*%
G04 Aperture macros list end*
%ADD10C,5.000000*%
%ADD11C,0.604000*%
%ADD12RoundRect,0.050000X-0.700000X0.450000X-0.700000X-0.450000X0.700000X-0.450000X0.700000X0.450000X0*%
%ADD13RoundRect,0.050000X0.700000X-0.450000X0.700000X0.450000X-0.700000X0.450000X-0.700000X-0.450000X0*%
%ADD14RoundRect,0.050000X0.450000X0.700000X-0.450000X0.700000X-0.450000X-0.700000X0.450000X-0.700000X0*%
%ADD15RoundRect,0.050000X-0.450000X-0.700000X0.450000X-0.700000X0.450000X0.700000X-0.450000X0.700000X0*%
%ADD16RoundRect,0.047000X-0.608000X0.423000X-0.608000X-0.423000X0.608000X-0.423000X0.608000X0.423000X0*%
%ADD17RoundRect,0.027500X-0.627500X0.247500X-0.627500X-0.247500X0.627500X-0.247500X0.627500X0.247500X0*%
%ADD18RoundRect,0.030000X-0.270000X-0.495000X0.270000X-0.495000X0.270000X0.495000X-0.270000X0.495000X0*%
%ADD19RoundRect,0.030000X-0.270000X-0.870000X0.270000X-0.870000X0.270000X0.870000X-0.270000X0.870000X0*%
%ADD20RoundRect,0.030000X0.270000X0.870000X-0.270000X0.870000X-0.270000X-0.870000X0.270000X-0.870000X0*%
%ADD21R,3.000000X9.000000*%
%ADD22R,2.000000X9.000000*%
%ADD23RoundRect,0.050000X-0.450000X-0.835000X0.450000X-0.835000X0.450000X0.835000X-0.450000X0.835000X0*%
%ADD24RoundRect,0.050000X0.450000X0.835000X-0.450000X0.835000X-0.450000X-0.835000X0.450000X-0.835000X0*%
%ADD25RoundRect,0.020000X0.180000X-0.480000X0.180000X0.480000X-0.180000X0.480000X-0.180000X-0.480000X0*%
%ADD26R,1.700000X1.700000*%
%ADD27O,1.700000X1.700000*%
%ADD28RoundRect,0.020000X0.430000X-0.180000X0.430000X0.180000X-0.430000X0.180000X-0.430000X-0.180000X0*%
%ADD29RoundRect,0.020000X-0.430000X0.180000X-0.430000X-0.180000X0.430000X-0.180000X0.430000X0.180000X0*%
%ADD30RoundRect,0.050000X-0.835000X0.450000X-0.835000X-0.450000X0.835000X-0.450000X0.835000X0.450000X0*%
%ADD31RoundRect,0.050000X0.835000X-0.450000X0.835000X0.450000X-0.835000X0.450000X-0.835000X-0.450000X0*%
%ADD32RoundRect,0.070000X-1.830000X-0.630000X1.830000X-0.630000X1.830000X0.630000X-1.830000X0.630000X0*%
%ADD33RoundRect,0.050000X0.450000X0.650000X-0.450000X0.650000X-0.450000X-0.650000X0.450000X-0.650000X0*%
%ADD34RoundRect,0.250000X0.350000X0.625000X-0.350000X0.625000X-0.350000X-0.625000X0.350000X-0.625000X0*%
%ADD35O,1.200000X1.750000*%
%ADD36C,1.778000*%
%ADD37RoundRect,0.025000X-0.225000X-0.525000X0.225000X-0.525000X0.225000X0.525000X-0.225000X0.525000X0*%
%ADD38RoundRect,0.070000X-1.030000X-0.630000X1.030000X-0.630000X1.030000X0.630000X-1.030000X0.630000X0*%
%ADD39RoundRect,0.050000X-0.650000X0.450000X-0.650000X-0.450000X0.650000X-0.450000X0.650000X0.450000X0*%
%ADD40RoundRect,0.250000X0.625000X-0.350000X0.625000X0.350000X-0.625000X0.350000X-0.625000X-0.350000X0*%
%ADD41O,1.750000X1.200000*%
%ADD42RoundRect,0.050000X-0.450000X-0.650000X0.450000X-0.650000X0.450000X0.650000X-0.450000X0.650000X0*%
%ADD43C,3.250000*%
G04 APERTURE END LIST*
D10*
%TO.C,HOLE1*%
X4890000Y114320000D03*
D11*
X6290000Y115720000D03*
X6790000Y114320000D03*
X6290000Y112920000D03*
X3490000Y112920000D03*
X4890000Y112420000D03*
X3490000Y115720000D03*
X2990000Y114320000D03*
X4890000Y116220000D03*
%TD*%
D12*
%TO.C,R11*%
X149330000Y43601000D03*
D13*
X149330000Y45601000D03*
%TD*%
%TO.C,C21*%
X172080000Y103930000D03*
D12*
X172080000Y101930000D03*
%TD*%
D14*
%TO.C,R21*%
X171060000Y42400000D03*
D15*
X173060000Y42400000D03*
%TD*%
D12*
%TO.C,R17*%
X36130000Y62850000D03*
D13*
X36130000Y64850000D03*
%TD*%
D16*
%TO.C,U19*%
X179400000Y70725000D03*
D17*
X179400000Y69000000D03*
X181400000Y69000000D03*
X181400000Y70920000D03*
%TD*%
D13*
%TO.C,C34*%
X169670000Y103950000D03*
D12*
X169670000Y101950000D03*
%TD*%
D14*
%TO.C,C6*%
X68360000Y87340000D03*
D15*
X70360000Y87340000D03*
%TD*%
D18*
%TO.C,U4*%
X80220000Y44680000D03*
X81170000Y44680000D03*
X82120000Y44680000D03*
X82120000Y47380000D03*
X80220000Y47380000D03*
%TD*%
D19*
%TO.C,U13*%
X93960000Y39160000D03*
X95230000Y39160000D03*
X96500000Y39160000D03*
X97770000Y39160000D03*
X99040000Y39160000D03*
X100310000Y39160000D03*
X101580000Y39160000D03*
X102850000Y39160000D03*
X104120000Y39160000D03*
X105390000Y39160000D03*
D20*
X105390000Y46960000D03*
X104120000Y46960000D03*
D19*
X102850000Y46960000D03*
X101580000Y46960000D03*
X100310000Y46960000D03*
X99040000Y46960000D03*
X97770000Y46960000D03*
X96500000Y46960000D03*
X95230000Y46960000D03*
X93960000Y46960000D03*
%TD*%
D14*
%TO.C,R18*%
X176410000Y107240000D03*
D15*
X178410000Y107240000D03*
%TD*%
D18*
%TO.C,U1*%
X75630000Y44670000D03*
X76580000Y44670000D03*
X77530000Y44670000D03*
X77530000Y47370000D03*
X75630000Y47370000D03*
%TD*%
D13*
%TO.C,C30*%
X174590000Y103950000D03*
D12*
X174590000Y101950000D03*
%TD*%
D10*
%TO.C,HOLE3*%
X4390000Y61340000D03*
D11*
X5790000Y62740000D03*
X6290000Y61340000D03*
X5790000Y59940000D03*
X2990000Y59940000D03*
X4390000Y59440000D03*
X2990000Y62740000D03*
X2490000Y61340000D03*
X4390000Y63240000D03*
%TD*%
D14*
%TO.C,R1*%
X119620000Y16780000D03*
D15*
X121620000Y16780000D03*
%TD*%
D13*
%TO.C,C39*%
X164740000Y103950000D03*
D12*
X164740000Y101950000D03*
%TD*%
D21*
%TO.C,P2*%
X37810000Y5460000D03*
D22*
X40810000Y5460000D03*
X43310000Y5460000D03*
X45810000Y5460000D03*
X48310000Y5460000D03*
X50810000Y5460000D03*
X53310000Y5460000D03*
X55810000Y5460000D03*
X58310000Y5460000D03*
X60810000Y5460000D03*
X63310000Y5460000D03*
X65810000Y5460000D03*
X68310000Y5460000D03*
X70810000Y5460000D03*
X73310000Y5460000D03*
X75810000Y5460000D03*
X78310000Y5460000D03*
X80810000Y5460000D03*
X83310000Y5460000D03*
X85810000Y5460000D03*
X88310000Y5460000D03*
X90810000Y5460000D03*
X93310000Y5460000D03*
X95810000Y5460000D03*
X98310000Y5460000D03*
X100810000Y5460000D03*
X103310000Y5460000D03*
X105810000Y5460000D03*
X108310000Y5460000D03*
X110810000Y5460000D03*
X113310000Y5460000D03*
X115810000Y5460000D03*
X118310000Y5460000D03*
X120810000Y5460000D03*
X123310000Y5460000D03*
D21*
X126310000Y5460000D03*
%TD*%
D19*
%TO.C,U15*%
X17500000Y66780000D03*
X18770000Y66780000D03*
X20040000Y66780000D03*
X21310000Y66780000D03*
X22580000Y66780000D03*
X23850000Y66780000D03*
X25120000Y66780000D03*
X26390000Y66780000D03*
X26390000Y72780000D03*
X25120000Y72780000D03*
X23850000Y72780000D03*
X22580000Y72780000D03*
X21310000Y72780000D03*
X20040000Y72780000D03*
X18770000Y72780000D03*
X17500000Y72780000D03*
%TD*%
D15*
%TO.C,R20*%
X13970000Y92810000D03*
D14*
X11970000Y92810000D03*
%TD*%
%TO.C,R5*%
X60700000Y80550000D03*
D15*
X62700000Y80550000D03*
%TD*%
D23*
%TO.C,C10*%
X154895000Y45271000D03*
D24*
X151825000Y45271000D03*
%TD*%
D19*
%TO.C,U6*%
X94060000Y19480000D03*
X95330000Y19480000D03*
X96600000Y19480000D03*
X97870000Y19480000D03*
X99140000Y19480000D03*
X100410000Y19480000D03*
X101680000Y19480000D03*
X102950000Y19480000D03*
X104220000Y19480000D03*
X105490000Y19480000D03*
X106760000Y19480000D03*
X108030000Y19480000D03*
X109300000Y19480000D03*
X110570000Y19480000D03*
X110570000Y30480000D03*
X109300000Y30480000D03*
X108030000Y30480000D03*
X106760000Y30480000D03*
X105490000Y30480000D03*
X104220000Y30480000D03*
X102950000Y30480000D03*
X101680000Y30480000D03*
X100410000Y30480000D03*
X99140000Y30480000D03*
X97870000Y30480000D03*
X96600000Y30480000D03*
X95330000Y30480000D03*
X94060000Y30480000D03*
%TD*%
D13*
%TO.C,C3*%
X90590000Y26160000D03*
D12*
X90590000Y24160000D03*
%TD*%
D25*
%TO.C,U12*%
X153250000Y35970000D03*
X153900000Y35970000D03*
X154550000Y35970000D03*
X155200000Y35970000D03*
X155850000Y35970000D03*
X156500000Y35970000D03*
X157150000Y35970000D03*
X157150000Y41970000D03*
X156500000Y41970000D03*
X155850000Y41970000D03*
X155200000Y41970000D03*
X154550000Y41970000D03*
X153900000Y41970000D03*
X153250000Y41970000D03*
%TD*%
D14*
%TO.C,C1*%
X72900000Y87330000D03*
D15*
X74900000Y87330000D03*
%TD*%
D13*
%TO.C,R8*%
X18490000Y39430000D03*
D12*
X18490000Y37430000D03*
%TD*%
D26*
%TO.C,J4*%
X135490000Y27990000D03*
D27*
X132950000Y27990000D03*
X130410000Y27990000D03*
X127870000Y27990000D03*
X125330000Y27990000D03*
%TD*%
D13*
%TO.C,C14*%
X90860000Y44230000D03*
D12*
X90860000Y42230000D03*
%TD*%
D13*
%TO.C,C23*%
X177150000Y103980000D03*
D12*
X177150000Y101980000D03*
%TD*%
D18*
%TO.C,U7*%
X67010000Y81770000D03*
X67960000Y81770000D03*
X68910000Y81770000D03*
X68910000Y84470000D03*
X67960000Y84470000D03*
X67010000Y84470000D03*
%TD*%
D28*
%TO.C,DA4*%
X182350000Y103740000D03*
X182350000Y104390000D03*
X182350000Y105040000D03*
X180750000Y105040000D03*
X180750000Y104390000D03*
X180750000Y103740000D03*
%TD*%
D10*
%TO.C,HOLE6*%
X54910000Y112060000D03*
D11*
X56310000Y113460000D03*
X56810000Y112060000D03*
X56310000Y110660000D03*
X53510000Y110660000D03*
X54910000Y110160000D03*
X53510000Y113460000D03*
X53010000Y112060000D03*
X54910000Y113960000D03*
%TD*%
D23*
%TO.C,C22*%
X149905000Y60360000D03*
D24*
X146835000Y60360000D03*
%TD*%
D26*
%TO.C,J3*%
X80620000Y68120000D03*
D27*
X78080000Y68120000D03*
X75540000Y68120000D03*
X73000000Y68120000D03*
X70460000Y68120000D03*
X67920000Y68120000D03*
X65380000Y68120000D03*
X62840000Y68120000D03*
X60300000Y68120000D03*
X57760000Y68120000D03*
X55220000Y68120000D03*
X52680000Y68120000D03*
X50140000Y68120000D03*
X47600000Y68120000D03*
%TD*%
D13*
%TO.C,C2*%
X35210000Y28420000D03*
D12*
X35210000Y26420000D03*
%TD*%
D29*
%TO.C,DA1*%
X184300000Y108160000D03*
X184300000Y107510000D03*
X184300000Y106860000D03*
X185900000Y106860000D03*
X185900000Y107510000D03*
X185900000Y108160000D03*
%TD*%
D30*
%TO.C,C16*%
X148080000Y33475000D03*
D31*
X148080000Y36545000D03*
%TD*%
D10*
%TO.C,HOLE5*%
X127350000Y112180000D03*
D11*
X128750000Y113580000D03*
X129250000Y112180000D03*
X128750000Y110780000D03*
X125950000Y110780000D03*
X127350000Y110280000D03*
X125950000Y113580000D03*
X125450000Y112180000D03*
X127350000Y114080000D03*
%TD*%
D15*
%TO.C,R2*%
X116930000Y77540000D03*
D14*
X114930000Y77540000D03*
%TD*%
%TO.C,R3*%
X60700000Y83000000D03*
D15*
X62700000Y83000000D03*
%TD*%
D14*
%TO.C,R7*%
X11490000Y51510000D03*
D15*
X13490000Y51510000D03*
%TD*%
D12*
%TO.C,R13*%
X148000000Y38600000D03*
D13*
X148000000Y40600000D03*
%TD*%
D12*
%TO.C,R15*%
X38790000Y62840000D03*
D13*
X38790000Y64840000D03*
%TD*%
D14*
%TO.C,C24*%
X146860000Y57500000D03*
D15*
X148860000Y57500000D03*
%TD*%
D14*
%TO.C,C8*%
X72920000Y90080000D03*
D15*
X74920000Y90080000D03*
%TD*%
D32*
%TO.C,C31*%
X177110000Y48320000D03*
X171110000Y48320000D03*
%TD*%
D14*
%TO.C,R10*%
X158880000Y45261000D03*
D15*
X160880000Y45261000D03*
%TD*%
D10*
%TO.C,HOLE2*%
X4230000Y17670000D03*
D11*
X5630000Y19070000D03*
X6130000Y17670000D03*
X5630000Y16270000D03*
X2830000Y16270000D03*
X4230000Y15770000D03*
X2830000Y19070000D03*
X2330000Y17670000D03*
X4230000Y19570000D03*
%TD*%
D33*
%TO.C,DA5*%
X171310000Y109950000D03*
X169410000Y109950000D03*
X170360000Y107750000D03*
%TD*%
D13*
%TO.C,R6*%
X21060000Y39430000D03*
D12*
X21060000Y37430000D03*
%TD*%
D13*
%TO.C,C25*%
X101040000Y34720000D03*
D12*
X101040000Y32720000D03*
%TD*%
D15*
%TO.C,R16*%
X163690000Y93390000D03*
D14*
X161690000Y93390000D03*
%TD*%
D34*
%TO.C,H5*%
X174100000Y114240000D03*
D35*
X172100000Y114240000D03*
X170100000Y114240000D03*
X168100000Y114240000D03*
X166100000Y114240000D03*
X164100000Y114240000D03*
X162100000Y114240000D03*
%TD*%
D15*
%TO.C,C17*%
X13500000Y54120000D03*
D14*
X11500000Y54120000D03*
%TD*%
D13*
%TO.C,C37*%
X167270000Y103940000D03*
D12*
X167270000Y101940000D03*
%TD*%
D15*
%TO.C,R19*%
X179820000Y54960000D03*
D14*
X177820000Y54960000D03*
%TD*%
D19*
%TO.C,U17*%
X161690000Y82990000D03*
X162960000Y82990000D03*
X164230000Y82990000D03*
X165500000Y82990000D03*
X166770000Y82990000D03*
X168040000Y82990000D03*
X169310000Y82990000D03*
X170580000Y82990000D03*
X171850000Y82990000D03*
X173120000Y82990000D03*
D20*
X173120000Y90790000D03*
X171850000Y90790000D03*
D19*
X170580000Y90790000D03*
X169310000Y90790000D03*
X168040000Y90790000D03*
X166770000Y90790000D03*
X165500000Y90790000D03*
X164230000Y90790000D03*
X162960000Y90790000D03*
X161690000Y90790000D03*
%TD*%
D15*
%TO.C,C5*%
X79300000Y87350000D03*
D14*
X77300000Y87350000D03*
%TD*%
D36*
%TO.C,U16*%
X94510000Y57580000D03*
X97050000Y57580000D03*
X99590000Y57580000D03*
X102130000Y57580000D03*
X104670000Y57580000D03*
X107210000Y57580000D03*
X109750000Y57580000D03*
X112290000Y57580000D03*
X114830000Y57580000D03*
X117370000Y57580000D03*
X119910000Y57580000D03*
X122450000Y57580000D03*
X124990000Y57580000D03*
X127530000Y57580000D03*
X130070000Y57580000D03*
X132610000Y57580000D03*
X135150000Y57580000D03*
X137690000Y57580000D03*
X140230000Y57580000D03*
X142770000Y57580000D03*
X142770000Y72820000D03*
X140230000Y72820000D03*
X137690000Y72820000D03*
X135150000Y72820000D03*
X132610000Y72820000D03*
X130070000Y72820000D03*
X127530000Y72820000D03*
X124990000Y72820000D03*
X122450000Y72820000D03*
X119910000Y72820000D03*
X117370000Y72820000D03*
X114830000Y72820000D03*
X112290000Y72820000D03*
X109750000Y72820000D03*
X107210000Y72820000D03*
X104670000Y72820000D03*
X102130000Y72820000D03*
X99590000Y72820000D03*
X97050000Y72820000D03*
X94510000Y72820000D03*
%TD*%
D37*
%TO.C,RA1*%
X167650000Y94170000D03*
X168920000Y94170000D03*
X170190000Y94170000D03*
X171460000Y94170000D03*
X172730000Y94170000D03*
X172730000Y97470000D03*
X171460000Y97470000D03*
X170190000Y97470000D03*
X168920000Y97470000D03*
X167650000Y97470000D03*
%TD*%
D18*
%TO.C,U18*%
X18060000Y85990000D03*
X19010000Y85990000D03*
X19960000Y85990000D03*
X19960000Y88690000D03*
X18060000Y88690000D03*
%TD*%
D28*
%TO.C,DA2*%
X185900000Y103750000D03*
X185900000Y104400000D03*
X185900000Y105050000D03*
X184300000Y105050000D03*
X184300000Y104400000D03*
X184300000Y103750000D03*
%TD*%
D38*
%TO.C,C15*%
X156360000Y29270000D03*
X153160000Y29270000D03*
%TD*%
D19*
%TO.C,U5*%
X38140000Y21970000D03*
X39410000Y21970000D03*
X40680000Y21970000D03*
X41950000Y21970000D03*
X43220000Y21970000D03*
X44490000Y21970000D03*
X45760000Y21970000D03*
X47030000Y21970000D03*
X48300000Y21970000D03*
X49570000Y21970000D03*
X50840000Y21970000D03*
X52110000Y21970000D03*
X53380000Y21970000D03*
X54650000Y21970000D03*
X54650000Y32970000D03*
X53380000Y32970000D03*
X52110000Y32970000D03*
X50840000Y32970000D03*
X49570000Y32970000D03*
X48300000Y32970000D03*
X47030000Y32970000D03*
X45760000Y32970000D03*
X44490000Y32970000D03*
X43220000Y32970000D03*
X41950000Y32970000D03*
X40680000Y32970000D03*
X39410000Y32970000D03*
X38140000Y32970000D03*
%TD*%
D39*
%TO.C,U9*%
X77300000Y84020000D03*
X77300000Y82120000D03*
X79500000Y83070000D03*
%TD*%
D12*
%TO.C,C11*%
X159390000Y38060000D03*
D13*
X159390000Y40060000D03*
%TD*%
D36*
%TO.C,D1*%
X17390000Y92810000D03*
X19930000Y92810000D03*
%TD*%
D13*
%TO.C,C33*%
X176380000Y85020000D03*
D12*
X176380000Y83020000D03*
%TD*%
D14*
%TO.C,C35*%
X166080000Y33610000D03*
D15*
X168080000Y33610000D03*
%TD*%
D13*
%TO.C,C26*%
X177840000Y98600000D03*
D12*
X177840000Y96600000D03*
%TD*%
D29*
%TO.C,DA3*%
X180670000Y108150000D03*
X180670000Y107500000D03*
X180670000Y106850000D03*
X182270000Y106850000D03*
X182270000Y107500000D03*
X182270000Y108150000D03*
%TD*%
D14*
%TO.C,R14*%
X153490000Y33580000D03*
D15*
X155490000Y33580000D03*
%TD*%
D40*
%TO.C,H6*%
X191300000Y85000000D03*
D41*
X191300000Y87000000D03*
X191300000Y89000000D03*
X191300000Y91000000D03*
X191300000Y93000000D03*
X191300000Y95000000D03*
X191300000Y97000000D03*
%TD*%
D13*
%TO.C,C19*%
X175420000Y98630000D03*
D12*
X175420000Y96630000D03*
%TD*%
D26*
%TO.C,J6*%
X189000000Y16260000D03*
D27*
X189000000Y18800000D03*
X186460000Y16260000D03*
X186460000Y18800000D03*
X183920000Y16260000D03*
X183920000Y18800000D03*
X181380000Y16260000D03*
X181380000Y18800000D03*
X178840000Y16260000D03*
X178840000Y18800000D03*
X176300000Y16260000D03*
X176300000Y18800000D03*
X173760000Y16260000D03*
X173760000Y18800000D03*
X171220000Y16260000D03*
X171220000Y18800000D03*
X168680000Y16260000D03*
X168680000Y18800000D03*
X166140000Y16260000D03*
X166140000Y18800000D03*
%TD*%
D14*
%TO.C,R4*%
X60640000Y85570000D03*
D15*
X62640000Y85570000D03*
%TD*%
%TO.C,C12*%
X163940000Y33607000D03*
D14*
X161940000Y33607000D03*
%TD*%
%TO.C,R12*%
X170310000Y33610000D03*
D15*
X172310000Y33610000D03*
%TD*%
%TO.C,C13*%
X163960000Y31040000D03*
D14*
X161960000Y31040000D03*
%TD*%
D18*
%TO.C,U8*%
X71680000Y81760000D03*
X72630000Y81760000D03*
X73580000Y81760000D03*
X73580000Y84460000D03*
X71680000Y84460000D03*
%TD*%
D10*
%TO.C,HOLE4*%
X192610000Y115100000D03*
D11*
X194010000Y116500000D03*
X194510000Y115100000D03*
X194010000Y113700000D03*
X191210000Y113700000D03*
X192610000Y113200000D03*
X191210000Y116500000D03*
X190710000Y115100000D03*
X192610000Y117000000D03*
%TD*%
D36*
%TO.C,U14*%
X18490000Y42220000D03*
X21030000Y42220000D03*
X23570000Y42220000D03*
X26110000Y42220000D03*
X28650000Y42220000D03*
X31190000Y42220000D03*
X33730000Y42220000D03*
X36270000Y42220000D03*
X38810000Y42220000D03*
X41350000Y42220000D03*
X43890000Y42220000D03*
X46430000Y42220000D03*
X48970000Y42220000D03*
X51510000Y42220000D03*
X54050000Y42220000D03*
X56590000Y42220000D03*
X59130000Y42220000D03*
X61670000Y42220000D03*
X64210000Y42220000D03*
X66750000Y42220000D03*
X66750000Y57460000D03*
X64210000Y57460000D03*
X61670000Y57460000D03*
X59130000Y57460000D03*
X56590000Y57460000D03*
X54050000Y57460000D03*
X51510000Y57460000D03*
X48970000Y57460000D03*
X46430000Y57460000D03*
X43890000Y57460000D03*
X41350000Y57460000D03*
X38810000Y57460000D03*
X36270000Y57460000D03*
X33730000Y57460000D03*
X31190000Y57460000D03*
X28650000Y57460000D03*
X26110000Y57460000D03*
X23570000Y57460000D03*
X21030000Y57460000D03*
X18490000Y57460000D03*
%TD*%
D14*
%TO.C,R9*%
X11490000Y49070000D03*
D15*
X13490000Y49070000D03*
%TD*%
D12*
%TO.C,C18*%
X13770000Y72640000D03*
D13*
X13770000Y74640000D03*
%TD*%
D42*
%TO.C,Q1*%
X173020000Y54950000D03*
X174920000Y54950000D03*
X173970000Y57150000D03*
%TD*%
D14*
%TO.C,R22*%
X157580000Y33590000D03*
D15*
X159580000Y33590000D03*
%TD*%
%TO.C,C20*%
X178190000Y110830000D03*
D14*
X176190000Y110830000D03*
%TD*%
D43*
%TO.C,J1*%
X186310000Y51750000D03*
X186310000Y59250000D03*
X186310000Y64250000D03*
X186310000Y69250000D03*
X186310000Y74250000D03*
%TD*%
M02*
