%TF.GenerationSoftware,KiCad,Pcbnew,7.0.1-3b83917a11~172~ubuntu22.04.1*%
%TF.CreationDate,2024-01-22T22:13:39+01:00*%
%TF.ProjectId,NES_POWER_FINESSE,4e45535f-504f-4574-9552-5f46494e4553,rev?*%
%TF.SameCoordinates,Original*%
%TF.FileFunction,Glue,Bot*%
%TF.FilePolarity,Positive*%
%FSLAX46Y46*%
G04 Gerber Fmt 4.6, Leading zero omitted, Abs format (unit mm)*
G04 Created by KiCad (PCBNEW 7.0.1-3b83917a11~172~ubuntu22.04.1) date 2024-01-22 22:13:39*
%MOMM*%
%LPD*%
G01*
G04 APERTURE LIST*
%TA.AperFunction,Profile*%
%ADD10C,0.050000*%
%TD*%
%TA.AperFunction,Profile*%
%ADD11C,0.010000*%
%TD*%
G04 APERTURE END LIST*
D10*
X118490000Y-127370000D02*
X118490000Y-114990000D01*
X187790000Y-79590000D02*
X178640000Y-79590000D01*
X178640000Y-120470000D02*
X173590000Y-120470000D01*
X173590000Y-120470000D02*
X163640000Y-120470000D01*
X117190000Y-114990000D02*
X118490000Y-114990000D01*
X126640000Y-54590000D02*
X131690000Y-54590000D01*
X118490000Y-66590000D02*
X118490000Y-57790000D01*
X163640000Y-120470000D02*
X138290000Y-120470000D01*
X189840000Y-57690000D02*
X189840000Y-67090000D01*
X118490000Y-57790000D02*
X126640000Y-57790000D01*
X131690000Y-57690000D02*
X189840000Y-57690000D01*
X117190000Y-114990000D02*
X117190000Y-99690000D01*
X189840000Y-67090000D02*
X187790000Y-67090000D01*
X138290000Y-120470000D02*
X138290000Y-127370000D01*
X117190000Y-99690000D02*
X118490000Y-99690000D01*
X187790000Y-67090000D02*
X187790000Y-79590000D01*
X118490000Y-75590000D02*
X115490000Y-75590000D01*
X115490000Y-66590000D02*
X118490000Y-66590000D01*
X115490000Y-75590000D02*
X115490000Y-66590000D01*
X118490000Y-99690000D02*
X118490000Y-75590000D01*
X126640000Y-57790000D02*
X126640000Y-54590000D01*
X138290000Y-127370000D02*
X118490000Y-127370000D01*
X131690000Y-54590000D02*
X131690000Y-57690000D01*
X178640000Y-79590000D02*
X178640000Y-120470000D01*
D11*
%TO.C,J3*%
X149286000Y-60648000D02*
X151086000Y-60648000D01*
X151086000Y-60648000D02*
X151086000Y-58948000D01*
X157786000Y-60648000D02*
X159586000Y-60648000D01*
X159586000Y-60648000D02*
X159586000Y-58948000D01*
X149286000Y-58948000D02*
X149286000Y-60648000D01*
X151086000Y-58948000D02*
X149286000Y-58948000D01*
X157786000Y-58948000D02*
X157786000Y-60648000D01*
X159586000Y-58948000D02*
X157786000Y-58948000D01*
%TO.C,J5*%
X165432000Y-60554000D02*
X167232000Y-60554000D01*
X167232000Y-60554000D02*
X167232000Y-58854000D01*
X173932000Y-60554000D02*
X175732000Y-60554000D01*
X175732000Y-60554000D02*
X175732000Y-58854000D01*
X165432000Y-58854000D02*
X165432000Y-60554000D01*
X167232000Y-58854000D02*
X165432000Y-58854000D01*
X173932000Y-58854000D02*
X173932000Y-60554000D01*
X175732000Y-58854000D02*
X173932000Y-58854000D01*
%TD*%
M02*
