M48
; DRILL file {KiCad 7.0.1-3b83917a11~172~ubuntu22.04.1} date lun 22 ene 2024 22:13:43
; FORMAT={-:-/ absolute / metric / decimal}
; #@! TF.CreationDate,2024-01-22T22:13:43+01:00
; #@! TF.GenerationSoftware,Kicad,Pcbnew,7.0.1-3b83917a11~172~ubuntu22.04.1
; #@! TF.FileFunction,MixedPlating,1,2
FMAT,2
METRIC
; #@! TA.AperFunction,Plated,PTH,ViaDrill
T1C0.400
; #@! TA.AperFunction,Plated,PTH,ComponentDrill
T2C0.500
; #@! TA.AperFunction,Plated,PTH,ComponentDrill
T3C0.600
; #@! TA.AperFunction,Plated,PTH,ComponentDrill
T4C0.900
; #@! TA.AperFunction,Plated,PTH,ComponentDrill
T5C1.000
; #@! TA.AperFunction,Plated,PTH,ComponentDrill
T6C1.200
; #@! TA.AperFunction,Plated,PTH,ComponentDrill
T7C1.300
; #@! TA.AperFunction,Plated,PTH,ComponentDrill
T8C2.500
; #@! TA.AperFunction,NonPlated,NPTH,ComponentDrill
T9C2.800
; #@! TA.AperFunction,NonPlated,NPTH,ComponentDrill
T10C3.500
%
G90
G05
T1
X119.35Y-94.11
X120.26Y-101.85
X130.06Y-93.83
X130.12Y-96.21
X130.165Y-58.09
X130.23Y-98.74
X131.09Y-93.79
X131.117Y-96.281
X135.67Y-102.74
X137.07Y-90.38
X137.28Y-86.08
X138.468Y-89.395
X138.69Y-97.93
X138.94Y-70.415
X139.46Y-115.72
X140.453Y-109.51
X141.24Y-105.14
X141.303Y-106.95
X141.308Y-93.225
X142.49Y-75.215
X143.088Y-90.845
X143.27Y-95.75
X143.86Y-94.51
X144.473Y-104.28
X144.643Y-110.71
X144.643Y-113.25
X144.803Y-105.64
X144.813Y-108.2
X146.18Y-77.28
X147.193Y-105.64
X147.353Y-112.0
X147.58Y-89.38
X147.69Y-87.35
X148.643Y-103.34
X149.05Y-79.2
X149.08Y-75.31
X152.333Y-115.39
X156.82Y-80.62
X156.82Y-81.62
X156.82Y-82.62
X157.27Y-99.94
X157.82Y-76.62
X157.82Y-80.62
X157.82Y-81.62
X157.82Y-82.62
X158.82Y-76.62
X158.82Y-80.62
X158.82Y-81.62
X158.82Y-82.62
X160.65Y-74.83
X162.8Y-96.4
T3
X132.738Y-109.84
X132.74Y-104.84
X134.738Y-109.84
X134.74Y-104.84
T4
X123.14Y-87.89
X123.14Y-91.89
X123.14Y-93.89
X123.14Y-95.89
X125.64Y-87.89
X125.64Y-91.89
X125.64Y-93.89
X125.64Y-95.89
T5
X125.44Y-103.41
X125.44Y-106.81
X125.44Y-108.81
X125.44Y-111.21
X128.24Y-103.41
X128.24Y-105.36
X128.24Y-107.31
X128.24Y-109.26
X128.24Y-111.21
X170.85Y-87.53
X170.85Y-90.07
X170.85Y-92.61
X170.85Y-95.15
X170.85Y-97.69
X170.85Y-100.23
X170.85Y-102.77
X170.85Y-105.31
X170.85Y-107.85
X170.85Y-110.39
X173.39Y-87.53
X173.39Y-90.07
X173.39Y-92.61
X173.39Y-95.15
X173.39Y-97.69
X173.39Y-100.23
X173.39Y-102.77
X173.39Y-105.31
X173.39Y-107.85
X173.39Y-110.39
T6
X121.39Y-85.89
X121.39Y-97.89
X127.39Y-85.89
X127.39Y-97.89
X135.615Y-64.54
X140.615Y-64.54
T8
X122.99Y-100.085
X122.99Y-114.535
T9
X134.3Y-122.36
T10
X124.3Y-122.36
X184.63Y-63.09
T2
G00X123.661Y-72.286
M15
G01X123.661Y-69.786
M16
G05
G00X125.311Y-75.836
M15
G01X127.811Y-75.836
M16
G05
G00X129.461Y-72.286
M15
G01X129.461Y-69.786
M16
G05
T5
G00X122.09Y-106.31
M15
G01X122.09Y-108.31
M16
G05
G00X154.436Y-68.448
M15
G01X154.436Y-66.448
M16
G05
G00X170.582Y-68.354
M15
G01X170.582Y-66.354
M16
G05
T7
G00X153.836Y-62.948
M15
G01X155.036Y-62.948
M16
G05
G00X169.982Y-62.854
M15
G01X171.182Y-62.854
M16
G05
T0
M30
