%TF.GenerationSoftware,KiCad,Pcbnew,7.0.1-3b83917a11~172~ubuntu22.04.1*%
%TF.CreationDate,2024-01-22T22:13:39+01:00*%
%TF.ProjectId,NES_POWER_FINESSE,4e45535f-504f-4574-9552-5f46494e4553,rev?*%
%TF.SameCoordinates,Original*%
%TF.FileFunction,Soldermask,Top*%
%TF.FilePolarity,Negative*%
%FSLAX46Y46*%
G04 Gerber Fmt 4.6, Leading zero omitted, Abs format (unit mm)*
G04 Created by KiCad (PCBNEW 7.0.1-3b83917a11~172~ubuntu22.04.1) date 2024-01-22 22:13:39*
%MOMM*%
%LPD*%
G01*
G04 APERTURE LIST*
G04 Aperture macros list*
%AMRoundRect*
0 Rectangle with rounded corners*
0 $1 Rounding radius*
0 $2 $3 $4 $5 $6 $7 $8 $9 X,Y pos of 4 corners*
0 Add a 4 corners polygon primitive as box body*
4,1,4,$2,$3,$4,$5,$6,$7,$8,$9,$2,$3,0*
0 Add four circle primitives for the rounded corners*
1,1,$1+$1,$2,$3*
1,1,$1+$1,$4,$5*
1,1,$1+$1,$6,$7*
1,1,$1+$1,$8,$9*
0 Add four rect primitives between the rounded corners*
20,1,$1+$1,$2,$3,$4,$5,0*
20,1,$1+$1,$4,$5,$6,$7,0*
20,1,$1+$1,$6,$7,$8,$9,0*
20,1,$1+$1,$8,$9,$2,$3,0*%
%AMFreePoly0*
4,1,16,0.523970,0.794789,0.542268,0.778179,1.042268,0.028179,1.050800,0.000000,1.042268,-0.028179,0.542268,-0.778179,0.523970,-0.794789,0.500000,-0.800800,-0.500000,-0.800800,-0.535921,-0.785921,-0.550800,-0.750000,-0.550800,0.750000,-0.535921,0.785921,-0.500000,0.800800,0.500000,0.800800,0.523970,0.794789,0.523970,0.794789,$1*%
%AMFreePoly1*
4,1,16,0.535921,0.785921,0.550800,0.750000,0.550800,-0.750000,0.535921,-0.785921,0.500000,-0.800800,-0.650000,-0.800800,-0.683481,-0.788205,-0.700361,-0.756666,-0.692268,-0.721821,-0.211054,0.000000,-0.692268,0.721821,-0.700361,0.756666,-0.683481,0.788205,-0.650000,0.800800,0.500000,0.800800,0.535921,0.785921,0.535921,0.785921,$1*%
%AMFreePoly2*
4,1,17,0.385921,0.735921,0.735921,0.385921,0.750800,0.350000,0.750800,-0.350000,0.735921,-0.385921,0.385921,-0.735921,0.350000,-0.750800,-0.350000,-0.750800,-0.385921,-0.735921,-0.735921,-0.385921,-0.750800,-0.350000,-0.750800,0.350000,-0.735921,0.385921,-0.385921,0.735921,-0.350000,0.750800,0.350000,0.750800,0.385921,0.735921,0.385921,0.735921,$1*%
%AMFreePoly3*
4,1,17,0.435921,0.835921,0.835921,0.435921,0.850800,0.400000,0.850800,-0.400000,0.835921,-0.435921,0.435921,-0.835921,0.400000,-0.850800,-0.400000,-0.850800,-0.435921,-0.835921,-0.835921,-0.435921,-0.850800,-0.400000,-0.850800,0.400000,-0.835921,0.435921,-0.435921,0.835921,-0.400000,0.850800,0.400000,0.850800,0.435921,0.835921,0.435921,0.835921,$1*%
G04 Aperture macros list end*
%TA.AperFunction,Profile*%
%ADD10C,0.010000*%
%TD*%
%ADD11RoundRect,0.050800X0.780000X0.325000X-0.780000X0.325000X-0.780000X-0.325000X0.780000X-0.325000X0*%
%ADD12RoundRect,0.120800X0.630000X-1.430000X0.630000X1.430000X-0.630000X1.430000X-0.630000X-1.430000X0*%
%ADD13RoundRect,0.300800X-0.337500X-0.475000X0.337500X-0.475000X0.337500X0.475000X-0.337500X0.475000X0*%
%ADD14RoundRect,0.300800X-0.450000X0.350000X-0.450000X-0.350000X0.450000X-0.350000X0.450000X0.350000X0*%
%ADD15O,1.409600X3.609599*%
%ADD16O,3.609599X1.409600*%
%ADD17RoundRect,0.300800X-0.350000X-0.450000X0.350000X-0.450000X0.350000X0.450000X-0.350000X0.450000X0*%
%ADD18RoundRect,0.050800X1.000000X-0.750000X1.000000X0.750000X-1.000000X0.750000X-1.000000X-0.750000X0*%
%ADD19RoundRect,0.050800X-0.600000X-0.600000X0.600000X-0.600000X0.600000X0.600000X-0.600000X0.600000X0*%
%ADD20RoundRect,0.050800X-0.750000X-0.800000X0.750000X-0.800000X0.750000X0.800000X-0.750000X0.800000X0*%
%ADD21O,1.551600X0.701599*%
%ADD22RoundRect,0.300800X0.350000X0.450000X-0.350000X0.450000X-0.350000X-0.450000X0.350000X-0.450000X0*%
%ADD23RoundRect,0.100800X-0.700000X0.450000X-0.700000X-0.450000X0.700000X-0.450000X0.700000X0.450000X0*%
%ADD24RoundRect,0.100800X0.700000X-0.450000X0.700000X0.450000X-0.700000X0.450000X-0.700000X-0.450000X0*%
%ADD25FreePoly0,90.000000*%
%ADD26FreePoly1,90.000000*%
%ADD27RoundRect,0.300800X0.337500X0.475000X-0.337500X0.475000X-0.337500X-0.475000X0.337500X-0.475000X0*%
%ADD28RoundRect,0.300800X0.450000X-0.350000X0.450000X0.350000X-0.450000X0.350000X-0.450000X-0.350000X0*%
%ADD29RoundRect,0.300800X0.475000X-0.337500X0.475000X0.337500X-0.475000X0.337500X-0.475000X-0.337500X0*%
%ADD30C,3.601600*%
%ADD31RoundRect,0.050800X-0.900000X0.754000X-0.900000X-0.754000X0.900000X-0.754000X0.900000X0.754000X0*%
%ADD32O,1.901600X1.609600*%
%ADD33C,3.617600*%
%ADD34O,2.101600X4.101600*%
%ADD35RoundRect,0.050800X0.600000X0.600000X-0.600000X0.600000X-0.600000X-0.600000X0.600000X-0.600000X0*%
%ADD36C,1.301600*%
%ADD37RoundRect,0.080800X-0.495000X0.270000X-0.495000X-0.270000X0.495000X-0.270000X0.495000X0.270000X0*%
%ADD38FreePoly2,270.000000*%
%ADD39FreePoly3,270.000000*%
%ADD40FreePoly3,90.000000*%
%ADD41O,4.001600X2.601600*%
%ADD42C,2.901600*%
%ADD43RoundRect,0.100800X-0.450000X-0.700000X0.450000X-0.700000X0.450000X0.700000X-0.450000X0.700000X0*%
%ADD44RoundRect,0.100800X0.450000X0.700000X-0.450000X0.700000X-0.450000X-0.700000X0.450000X-0.700000X0*%
%ADD45RoundRect,0.300800X-0.475000X0.337500X-0.475000X-0.337500X0.475000X-0.337500X0.475000X0.337500X0*%
%ADD46RoundRect,0.050800X1.200000X-0.750000X1.200000X0.750000X-1.200000X0.750000X-1.200000X-0.750000X0*%
%ADD47RoundRect,0.050800X-0.850000X-0.850000X0.850000X-0.850000X0.850000X0.850000X-0.850000X0.850000X0*%
%ADD48O,1.801600X1.801600*%
%ADD49RoundRect,0.050800X1.200000X1.200000X-1.200000X1.200000X-1.200000X-1.200000X1.200000X-1.200000X0*%
%ADD50C,2.501600*%
%ADD51RoundRect,0.294550X0.243750X0.456250X-0.243750X0.456250X-0.243750X-0.456250X0.243750X-0.456250X0*%
%ADD52RoundRect,0.050800X-0.727449X-0.279000X0.727449X-0.279000X0.727449X0.279000X-0.727449X0.279000X0*%
%TA.AperFunction,Profile*%
%ADD53C,0.050000*%
%TD*%
G04 APERTURE END LIST*
D10*
%TO.C,J3*%
X149286000Y-60648000D02*
X151086000Y-60648000D01*
X151086000Y-60648000D02*
X151086000Y-58948000D01*
X157786000Y-60648000D02*
X159586000Y-60648000D01*
X159586000Y-60648000D02*
X159586000Y-58948000D01*
X149286000Y-58948000D02*
X149286000Y-60648000D01*
X151086000Y-58948000D02*
X149286000Y-58948000D01*
X157786000Y-58948000D02*
X157786000Y-60648000D01*
X159586000Y-58948000D02*
X157786000Y-58948000D01*
%TO.C,J5*%
X165432000Y-60554000D02*
X167232000Y-60554000D01*
X167232000Y-60554000D02*
X167232000Y-58854000D01*
X173932000Y-60554000D02*
X175732000Y-60554000D01*
X175732000Y-60554000D02*
X175732000Y-58854000D01*
X165432000Y-58854000D02*
X165432000Y-60554000D01*
X167232000Y-58854000D02*
X165432000Y-58854000D01*
X173932000Y-58854000D02*
X173932000Y-60554000D01*
X175732000Y-58854000D02*
X173932000Y-58854000D01*
%TD*%
D11*
%TO.C,J7*%
X156420000Y-79320000D03*
X156420000Y-78370000D03*
X156420000Y-77420000D03*
X153720000Y-77420000D03*
X153720000Y-78370000D03*
X153720000Y-79320000D03*
%TD*%
D12*
%TO.C,C16*%
X173830000Y-74680000D03*
X173830000Y-79480000D03*
%TD*%
D13*
%TO.C,C3*%
X156282500Y-72870000D03*
X158357500Y-72870000D03*
%TD*%
D14*
%TO.C,R4*%
X151570000Y-77495000D03*
X151570000Y-79495000D03*
%TD*%
D15*
%TO.C,J2*%
X129460999Y-71035900D03*
X123661000Y-71035900D03*
D16*
X126560999Y-75835901D03*
%TD*%
D17*
%TO.C,R16*%
X145092696Y-115390000D03*
X147092696Y-115390000D03*
%TD*%
%TO.C,R3*%
X145672696Y-87330000D03*
X147672696Y-87330000D03*
%TD*%
D18*
%TO.C,D1*%
X146190000Y-72965000D03*
X146190000Y-81885000D03*
X140690000Y-72965000D03*
X140690000Y-81885000D03*
%TD*%
D19*
%TO.C,RV2*%
X150062696Y-88290000D03*
D20*
X153312696Y-89290000D03*
D19*
X150062696Y-90290000D03*
%TD*%
D21*
%TO.C,U1*%
X145222697Y-97025000D03*
X145222697Y-95755000D03*
X145222697Y-94485000D03*
X145222697Y-93215000D03*
X145222697Y-91945000D03*
X145222697Y-90675000D03*
X145222697Y-89405000D03*
X139772698Y-89405000D03*
X139772698Y-90675000D03*
X139772698Y-91945000D03*
X139772698Y-93215000D03*
X139772698Y-94485000D03*
X139772698Y-95755000D03*
X139772698Y-97025000D03*
%TD*%
D13*
%TO.C,C5*%
X153532500Y-81620000D03*
X155607500Y-81620000D03*
%TD*%
D22*
%TO.C,R8*%
X172930000Y-114590000D03*
X170930000Y-114590000D03*
%TD*%
D23*
%TO.C,C17*%
X168770000Y-79500000D03*
D24*
X168770000Y-77500000D03*
%TD*%
D25*
%TO.C,JP1*%
X121752500Y-62915000D03*
D26*
X121752500Y-61465000D03*
%TD*%
D27*
%TO.C,C10*%
X151230196Y-115380000D03*
X149155196Y-115380000D03*
%TD*%
D28*
%TO.C,R11*%
X135570000Y-92650000D03*
X135570000Y-90650000D03*
%TD*%
D14*
%TO.C,R6*%
X151570000Y-81370000D03*
X151570000Y-83370000D03*
%TD*%
D29*
%TO.C,C8*%
X152442696Y-112637500D03*
X152442696Y-110562500D03*
%TD*%
D19*
%TO.C,RV1*%
X150072696Y-92890000D03*
D20*
X153322696Y-93890000D03*
D19*
X150072696Y-94890000D03*
%TD*%
D30*
%TO.C,*%
X184630000Y-63090000D03*
%TD*%
D28*
%TO.C,R7*%
X154320000Y-75120000D03*
X154320000Y-73120000D03*
%TD*%
%TO.C,R1*%
X125890000Y-63152500D03*
X125890000Y-61152500D03*
%TD*%
D31*
%TO.C,J9*%
X125440000Y-108810000D03*
D32*
X125440000Y-106810000D03*
X125440000Y-111210000D03*
X128240000Y-109260000D03*
X128240000Y-107310000D03*
X125440000Y-103410000D03*
X128240000Y-111210000D03*
X128240000Y-105360000D03*
X128240000Y-103410000D03*
D33*
X122990000Y-114535000D03*
X122990000Y-100085000D03*
D34*
X122090000Y-107310000D03*
%TD*%
D35*
%TO.C,C12*%
X134737600Y-109840000D03*
D36*
X132737600Y-109840000D03*
%TD*%
D37*
%TO.C,U3*%
X168760000Y-81960000D03*
X168760000Y-82910000D03*
X168760000Y-83860000D03*
X171460000Y-83860000D03*
X171460000Y-81960000D03*
%TD*%
D38*
%TO.C,SW1*%
X123140000Y-87890000D03*
X123140000Y-91890000D03*
X123140000Y-93890000D03*
X123140000Y-95890000D03*
X125640000Y-87890000D03*
X125640000Y-91890000D03*
X125640000Y-93890000D03*
X125640000Y-95890000D03*
D39*
X127390000Y-85890000D03*
X121390000Y-85890000D03*
D40*
X127390000Y-97890000D03*
X121390000Y-97890000D03*
%TD*%
D28*
%TO.C,R2*%
X147562696Y-91440000D03*
X147562696Y-89440000D03*
%TD*%
D14*
%TO.C,R9*%
X154522696Y-110560000D03*
X154522696Y-112560000D03*
%TD*%
D17*
%TO.C,R5*%
X153570000Y-83620000D03*
X155570000Y-83620000D03*
%TD*%
D41*
%TO.C,J3*%
X154436000Y-62948000D03*
D34*
X154436000Y-67448000D03*
%TD*%
D42*
%TO.C,*%
X134300000Y-122360000D03*
%TD*%
D27*
%TO.C,C6*%
X164797500Y-74810000D03*
X162722500Y-74810000D03*
%TD*%
D28*
%TO.C,R13*%
X132420000Y-88030000D03*
X132420000Y-86030000D03*
%TD*%
D14*
%TO.C,R10*%
X154532696Y-106740000D03*
X154532696Y-108740000D03*
%TD*%
D29*
%TO.C,C9*%
X152432696Y-108777500D03*
X152432696Y-106702500D03*
%TD*%
D14*
%TO.C,R15*%
X157752696Y-113150000D03*
X157752696Y-115150000D03*
%TD*%
D43*
%TO.C,C18*%
X175770000Y-82990000D03*
D44*
X173770000Y-82990000D03*
%TD*%
D45*
%TO.C,C2*%
X150930000Y-73005000D03*
X150930000Y-75080000D03*
%TD*%
D41*
%TO.C,J5*%
X170582000Y-62854000D03*
D34*
X170582000Y-67354000D03*
%TD*%
D13*
%TO.C,C4*%
X156282500Y-75120000D03*
X158357500Y-75120000D03*
%TD*%
D35*
%TO.C,C13*%
X134740000Y-104840000D03*
D36*
X132740000Y-104840000D03*
%TD*%
D14*
%TO.C,R14*%
X132420000Y-90650000D03*
X132420000Y-92650000D03*
%TD*%
D28*
%TO.C,R12*%
X135530000Y-88080000D03*
X135530000Y-86080000D03*
%TD*%
D46*
%TO.C,L1*%
X163590000Y-82920000D03*
X163590000Y-77420000D03*
%TD*%
D30*
%TO.C,*%
X124300000Y-122360000D03*
%TD*%
D27*
%TO.C,C11*%
X155480196Y-115370000D03*
X153405196Y-115370000D03*
%TD*%
D47*
%TO.C,J1*%
X170850000Y-87530000D03*
D48*
X173390000Y-87530000D03*
X170850000Y-90070000D03*
X173390000Y-90070000D03*
X170850000Y-92610000D03*
X173390000Y-92610000D03*
X170850000Y-95150000D03*
X173390000Y-95150000D03*
X170850000Y-97690000D03*
X173390000Y-97690000D03*
X170850000Y-100230000D03*
X173390000Y-100230000D03*
X170850000Y-102770000D03*
X173390000Y-102770000D03*
X170850000Y-105310000D03*
X173390000Y-105310000D03*
X170850000Y-107850000D03*
X173390000Y-107850000D03*
X170850000Y-110390000D03*
X173390000Y-110390000D03*
%TD*%
D49*
%TO.C,C1*%
X140615000Y-64540000D03*
D50*
X135615000Y-64540000D03*
%TD*%
D51*
%TO.C,D2*%
X130127500Y-56490000D03*
X128252500Y-56490000D03*
%TD*%
D52*
%TO.C,U2*%
X143260000Y-104360000D03*
X143260000Y-105630000D03*
X143260000Y-106900000D03*
X143260000Y-108170000D03*
X143260000Y-109440000D03*
X143260000Y-110710000D03*
X143260000Y-111980000D03*
X143260000Y-113250000D03*
X148702696Y-113250000D03*
X148702696Y-111980000D03*
X148702696Y-110710000D03*
X148702696Y-109440000D03*
X148702696Y-108170000D03*
X148702696Y-106900000D03*
X148702696Y-105630000D03*
X148702696Y-104360000D03*
%TD*%
G36*
X122173823Y-98378620D02*
G01*
X122216952Y-98445731D01*
X122284497Y-98420538D01*
X122286422Y-98420832D01*
X122287185Y-98422622D01*
X122286064Y-98424214D01*
X122086600Y-98520271D01*
X121922398Y-98632222D01*
X121920517Y-98632422D01*
X121919311Y-98630966D01*
X121919857Y-98629156D01*
X122170726Y-98378287D01*
X122172354Y-98377712D01*
X122173823Y-98378620D01*
G37*
D53*
X118490000Y-127370000D02*
X118490000Y-114990000D01*
X187790000Y-79590000D02*
X178640000Y-79590000D01*
X178640000Y-120470000D02*
X173590000Y-120470000D01*
X173590000Y-120470000D02*
X163640000Y-120470000D01*
X117190000Y-114990000D02*
X118490000Y-114990000D01*
X126640000Y-54590000D02*
X131690000Y-54590000D01*
X118490000Y-66590000D02*
X118490000Y-57790000D01*
X163640000Y-120470000D02*
X138290000Y-120470000D01*
X189840000Y-57690000D02*
X189840000Y-67090000D01*
X118490000Y-57790000D02*
X126640000Y-57790000D01*
X131690000Y-57690000D02*
X189840000Y-57690000D01*
X117190000Y-114990000D02*
X117190000Y-99690000D01*
X189840000Y-67090000D02*
X187790000Y-67090000D01*
X138290000Y-120470000D02*
X138290000Y-127370000D01*
X117190000Y-99690000D02*
X118490000Y-99690000D01*
X187790000Y-67090000D02*
X187790000Y-79590000D01*
X118490000Y-75590000D02*
X115490000Y-75590000D01*
X115490000Y-66590000D02*
X118490000Y-66590000D01*
X115490000Y-75590000D02*
X115490000Y-66590000D01*
X118490000Y-99690000D02*
X118490000Y-75590000D01*
X126640000Y-57790000D02*
X126640000Y-54590000D01*
X138290000Y-127370000D02*
X118490000Y-127370000D01*
X131690000Y-54590000D02*
X131690000Y-57690000D01*
X178640000Y-79590000D02*
X178640000Y-120470000D01*
D10*
%TO.C,J3*%
X149286000Y-60648000D02*
X151086000Y-60648000D01*
X151086000Y-60648000D02*
X151086000Y-58948000D01*
X157786000Y-60648000D02*
X159586000Y-60648000D01*
X159586000Y-60648000D02*
X159586000Y-58948000D01*
X149286000Y-58948000D02*
X149286000Y-60648000D01*
X151086000Y-58948000D02*
X149286000Y-58948000D01*
X157786000Y-58948000D02*
X157786000Y-60648000D01*
X159586000Y-58948000D02*
X157786000Y-58948000D01*
%TO.C,J5*%
X165432000Y-60554000D02*
X167232000Y-60554000D01*
X167232000Y-60554000D02*
X167232000Y-58854000D01*
X173932000Y-60554000D02*
X175732000Y-60554000D01*
X175732000Y-60554000D02*
X175732000Y-58854000D01*
X165432000Y-58854000D02*
X165432000Y-60554000D01*
X167232000Y-58854000D02*
X165432000Y-58854000D01*
X173932000Y-58854000D02*
X173932000Y-60554000D01*
X175732000Y-58854000D02*
X173932000Y-58854000D01*
%TD*%
M02*
